
<svg width="400" height="70" viewBox="0 0 400 70" fill="none" xmlns="http://www.w3.org/2000/svg">
<path d="M1.08936 55.1339C-0.119426 56.2831 -0.205393 58.2169 1.07443 59.3111C4.66796 62.3836 9.15177 64.1843 13.8608 64.3928C19.5653 64.6455 25.1331 62.5409 29.3393 58.5422C33.5455 54.5434 36.0455 48.9781 36.2894 43.0704C36.5243 37.3813 34.6484 31.8234 31.0609 27.5298C30.8346 27.259 30.4302 27.2401 30.177 27.4809L14.7805 42.1179L1.08936 55.1339Z" fill="#1460F3"/>
<path d="M13.3283 36.8236C13.1245 37.0189 12.7978 37.005 12.6141 36.7871C9.70242 33.3311 8.16924 28.848 8.34073 24.2516C8.5188 19.4786 10.5204 14.9743 13.9053 11.7297C17.2902 8.48513 21.781 6.76594 26.3898 6.95036C30.1943 7.10259 33.8219 8.54163 36.7345 11.011C37.772 11.8906 37.709 13.4532 36.7363 14.3855L25.7184 24.9469L13.3283 36.8236Z" fill="#1460F3"/>
<path d="M67.2381 31.751C61.65 30.4216 57.3457 30.1087 57.3457 26.0421C57.3457 23.2267 59.9132 21.3498 64.6706 21.3498C70.5022 21.3498 72.1814 24.1936 72.7987 27.1377C72.8646 27.4521 73.1369 27.6844 73.4582 27.6844H79.8941C80.2773 27.6844 80.5809 27.3579 80.5348 26.9775C79.7299 20.3316 74.7343 14.8589 64.5951 14.8589C54.9292 14.8589 49.3411 20.0986 49.3411 26.6677C49.3411 35.7395 57.6477 36.9907 63.7644 38.4766C69.4281 39.8843 74.0345 40.2753 74.0345 45.2804C74.0345 47.783 71.6935 50.5983 66.1809 50.5983C58.4074 50.5983 56.3967 47.2591 55.8984 43.2216C55.8566 42.8829 55.5736 42.6215 55.2323 42.6215H48.8212C48.4461 42.6215 48.1457 42.9353 48.175 43.3092C48.8091 51.3926 54.2129 57.0893 66.332 57.0893C75.6958 57.0893 82.0391 52.3188 82.0391 44.6548C82.0391 35.1138 74.3366 33.4715 67.2381 31.751Z" fill="#202022"/>
<path d="M105.849 14.8589C99.8374 14.8589 96.0691 17.8019 94.0233 20.6051C94.0044 20.631 93.9745 20.646 93.9425 20.646V20.646C93.8872 20.646 93.8425 20.6012 93.8425 20.546V16.612C93.8425 16.2484 93.5477 15.9537 93.1842 15.9537H86.4962C86.1326 15.9537 85.8379 16.2484 85.8379 16.612V68.8655C85.8379 69.2291 86.1326 69.5238 86.4962 69.5238H93.1842C93.5477 69.5238 93.8425 69.2291 93.8425 68.8655V51.2447C93.8425 51.19 93.8868 51.1458 93.9414 51.1458V51.1458C93.974 51.1458 94.0043 51.1615 94.0229 51.1884C96.0685 54.1459 99.837 57.0893 105.849 57.0893C115.666 57.0893 122.991 49.1124 122.991 35.9741C122.991 22.8357 115.666 14.8589 105.849 14.8589ZM104.339 50.3637C97.9203 50.3637 93.918 44.8112 93.918 35.9741C93.918 27.0588 97.9203 21.5844 104.339 21.5844C111.286 21.5844 114.987 28.1536 114.987 35.9741C114.987 43.7945 111.286 50.3637 104.339 50.3637Z" fill="#202022"/>
<path d="M144.314 50.3637C137.521 50.3637 133.413 45.1697 133.151 38.7439C133.136 38.3806 133.432 38.0856 133.796 38.0856H162.081C162.445 38.0856 162.74 37.787 162.735 37.4235C162.547 23.574 156.428 14.8589 144.163 14.8589C132.533 14.8589 125.208 22.9921 125.208 35.9741C125.208 48.4868 132.533 57.0893 144.54 57.0893C154.073 57.0893 159.749 51.7149 161.906 44.5356C162.03 44.1233 161.715 43.7163 161.285 43.7163H154.705C154.41 43.7163 154.154 43.9137 154.055 44.1918C153.18 46.6534 150.472 50.3637 144.314 50.3637ZM144.163 21.3498C150.351 21.3498 154.504 25.4932 154.794 31.327C154.812 31.6901 154.516 31.9856 154.152 31.9856H133.796C133.432 31.9856 133.136 31.6901 133.155 31.327C133.471 25.4932 137.974 21.3498 144.163 21.3498Z" fill="#202022"/>
<path d="M187.432 14.8589C180.818 14.8589 176.822 17.9577 174.775 21.0711C174.756 21.0988 174.726 21.1152 174.693 21.1152V21.1152C174.639 21.1152 174.595 21.0714 174.595 21.0173V16.612C174.595 16.2484 174.3 15.9537 173.936 15.9537H167.324C166.96 15.9537 166.666 16.2484 166.666 16.612V55.2579C166.666 55.6215 166.96 55.9162 167.324 55.9162H173.936C174.3 55.9162 174.595 55.6215 174.595 55.2579V31.5946C174.595 25.6511 178.521 21.8191 184.638 21.8191C190.075 21.8191 192.265 25.2601 192.265 30.6562V55.2579C192.265 55.6215 192.56 55.9162 192.924 55.9162H199.612C199.975 55.9162 200.27 55.6215 200.27 55.2579V28.31C200.27 19.1601 194.606 14.8589 187.432 14.8589Z" fill="#202022"/>
<path d="M233.778 0C233.415 0 233.12 0.294726 233.12 0.658288V20.704C233.12 20.7583 233.076 20.8024 233.022 20.8024V20.8024C232.989 20.8024 232.958 20.7862 232.94 20.759C230.894 17.725 227.126 14.8589 221.189 14.8589C211.296 14.8589 203.971 22.8357 203.971 35.9741C203.971 49.1124 211.296 57.0893 221.189 57.0893C227.125 57.0893 230.893 54.069 232.939 51.3422C232.958 51.3168 232.988 51.3022 233.02 51.3022V51.3022C233.075 51.3022 233.12 51.3472 233.12 51.4027V55.2579C233.12 55.6215 233.415 55.9162 233.778 55.9162H240.391C240.754 55.9162 241.049 55.6215 241.049 55.2579V0.658288C241.049 0.294725 240.754 0 240.391 0H233.778ZM222.548 50.3637C215.601 50.3637 211.9 43.7945 211.9 35.9741C211.9 28.1536 215.601 21.5844 222.548 21.5844C229.042 21.5844 233.045 27.0588 233.045 35.9741C233.045 44.8112 229.042 50.3637 222.548 50.3637Z" fill="#202022"/>
<path d="M266.395 14.8589C260.458 14.8589 256.69 17.725 254.644 20.759C254.626 20.7862 254.595 20.8024 254.562 20.8024V20.8024C254.508 20.8024 254.464 20.7583 254.464 20.704V0.658286C254.464 0.294723 254.169 0 253.805 0H247.193C246.829 0 246.535 0.294726 246.535 0.658288V55.2579C246.535 55.6215 246.829 55.9162 247.193 55.9162H253.805C254.169 55.9162 254.464 55.6215 254.464 55.2579V51.4027C254.464 51.3472 254.509 51.3022 254.564 51.3022V51.3022C254.596 51.3022 254.626 51.3168 254.645 51.3422C256.691 54.069 260.458 57.0893 266.395 57.0893C276.288 57.0893 283.613 49.1124 283.613 35.9741C283.613 22.8357 276.288 14.8589 266.395 14.8589ZM265.036 50.3637C258.542 50.3637 254.539 44.8112 254.539 35.9741C254.539 27.0588 258.542 21.5844 265.036 21.5844C271.983 21.5844 275.683 28.1536 275.683 35.9741C275.683 43.7945 271.983 50.3637 265.036 50.3637Z" fill="#202022"/>
<path d="M310.983 26.4331C310.983 30.2651 307.359 31.0472 301.393 32.2203C291.727 34.1754 285.459 36.9125 285.459 45.6714C285.459 52.397 290.292 57.0893 298.146 57.0893C304.084 57.0893 308.451 54.6871 310.874 51.1941C310.895 51.1638 310.93 51.1458 310.967 51.1458V51.1458C311.02 51.1458 311.066 51.1848 311.077 51.2373C311.845 55.0804 313.81 56.6201 318.006 56.6201C319.396 56.6201 320.595 56.4875 322.19 55.9175C322.446 55.8261 322.613 55.5809 322.613 55.3093V52.5777C322.613 52.188 322.274 51.8886 321.884 51.8906C319.419 51.9035 318.912 50.4402 318.912 47.8612V28.8575C318.912 18.2217 312.569 14.8589 304.036 14.8589C292.758 14.8589 287.943 20.5222 287.318 27.8545C287.286 28.2295 287.587 28.5446 287.963 28.5446H294.362C294.707 28.5446 294.992 28.2764 295.03 27.9336C295.548 23.222 297.949 21.3498 304.036 21.3498C309.322 21.3498 310.983 23.5396 310.983 26.4331ZM299.883 50.5983C295.578 50.5983 293.464 48.565 293.464 44.8894C293.464 40.8228 296.333 38.8676 302.903 37.3818C305.77 36.7758 308.275 36.0759 309.854 35.3549C310.344 35.1312 310.983 35.4807 310.983 36.0194V40.7446C310.983 47.2355 306.452 50.5983 299.883 50.5983Z" fill="#202022"/>
<path d="M342.429 31.751C336.841 30.4216 332.536 30.1087 332.536 26.0421C332.536 23.2267 335.104 21.3498 339.861 21.3498C345.693 21.3498 347.372 24.1936 347.989 27.1377C348.055 27.4521 348.328 27.6844 348.649 27.6844H355.085C355.468 27.6844 355.772 27.3579 355.725 26.9775C354.921 20.3316 349.925 14.8589 339.786 14.8589C330.12 14.8589 324.532 20.0986 324.532 26.6677C324.532 35.7395 332.838 36.9907 338.955 38.4766C344.619 39.8843 349.225 40.2753 349.225 45.2804C349.225 47.783 346.884 50.5983 341.372 50.5983C333.598 50.5983 331.587 47.2591 331.089 43.2216C331.047 42.8829 330.764 42.6215 330.423 42.6215H324.012C323.637 42.6215 323.336 42.9353 323.366 43.3092C324 51.3926 329.404 57.0893 341.523 57.0893C350.886 57.0893 357.23 52.3188 357.23 44.6548C357.23 35.1138 349.527 33.4715 342.429 31.751Z" fill="#202022"/>
<path d="M378.685 50.3637C371.893 50.3637 367.784 45.1697 367.522 38.7439C367.507 38.3806 367.803 38.0856 368.167 38.0856H396.452C396.816 38.0856 397.111 37.787 397.106 37.4235C396.918 23.574 390.8 14.8589 378.534 14.8589C366.905 14.8589 359.58 22.9921 359.58 35.9741C359.58 48.4868 366.905 57.0893 378.911 57.0893C388.445 57.0893 394.121 51.7149 396.278 44.5356C396.401 44.1233 396.087 43.7163 395.656 43.7163H389.077C388.781 43.7163 388.525 43.9137 388.426 44.1918C387.551 46.6534 384.843 50.3637 378.685 50.3637ZM378.534 21.3498C384.722 21.3498 388.875 25.4932 389.165 31.327C389.183 31.6901 388.887 31.9856 388.523 31.9856H368.167C367.803 31.9856 367.507 31.6901 367.526 31.327C367.842 25.4932 372.346 21.3498 378.534 21.3498Z" fill="#202022"/>
</svg>
